<svg version="1.1" id="Layer_1" xmlns:x="ns_extend;" xmlns:i="ns_ai;" xmlns:graph="ns_graphs;" xmlns="http://www.w3.org/2000/svg" xmlns:xlink="http://www.w3.org/1999/xlink" x="0px" y="0px" viewBox="0 0 100 50" style="enable-background:new 0 0 100 50;" xml:space="preserve">
 <metadata>
  <sfw xmlns="ns_sfw;">
   <slices>
   </slices>
   <sliceSourceBounds bottomLeftOrigin="true" height="50" width="100" x="120.8" y="-221.7">
   </sliceSourceBounds>
   <optimizationSettings>
    <targetSettings fileFormat="JPEGFormat" targetSettingsID="0">
     <JPEGFormat blurAmount="0" embedICCProfile="false" matteColor="#FFFFFF" noMatteColor="false" optimized="true" progressive="false" quality="60">
     </JPEGFormat>
    </targetSettings>
   </optimizationSettings>
  </sfw>
 </metadata>
 <g>
  <g>
   <g transform="translate(0.000000, 0.000000)">
    <g id="Clip-2">
    </g>
    <g id="Clip-13">
    </g>
   </g>
  </g>
  <g>
   <path d="M41.1,25.5c5.2,0,8.9-3.9,8.9-9c0-6-3.8-9.2-8.8-9.2c-5.3,0-8.9,4-8.9,9C32.3,22.2,36,25.5,41.1,25.5z M40.6,8.1
			c3.1,0,5,3.8,4.9,9.4c0,5.2-1.4,7.1-4,7.1c-3,0-4.9-3.8-4.9-9.4C36.6,10,38,8.1,40.6,8.1z">
   </path>
   <path d="M52.7,12.3l6,13.4l0.9-0.2l5.7-13.2c1.2-2.9,1.9-3.7,3.2-4l0.6-0.1V7.7c-0.9,0-1.7,0-3.3,0c-1.5,0-2.7,0-3.7,0v0.4L63,8.2
			c0.9,0.2,1.4,0.7,1.4,1.4c0,0.8-0.4,1.9-0.9,3.3l-3,7.9l-3.8-9.4c-0.3-0.7-0.5-1.5-0.5-2s0.4-0.9,1.5-1.1l0.7-0.1V7.7
			c-0.8,0-3.1,0-4.8,0c-1.6,0-3.9,0-4.8,0v0.6l0.6,0.1C51,8.6,51.4,9.2,52.7,12.3z">
   </path>
   <path d="M74.8,25.6c3.1,0,5.6-1.6,7.5-4.3l-0.5-0.4c-1.4,1.5-2.8,2.2-4.9,2.2c-3.7,0-6.4-3-6.5-8.1v-0.2h12.1
			c-0.1-4.9-2.3-7.5-7.1-7.5c-4.3,0-8.7,3.8-8.7,9.6C66.7,22.4,70.2,25.6,74.8,25.6z M74.6,8.1c2.1,0,3.4,1.8,3.5,5.6h-7.7
			C70.7,10.1,72.3,8.1,74.6,8.1z">
   </path>
   <path d="M83.4,29.9l0.3,0.5c2.6-1.7,5.1-4.2,5.1-6.8c0-2.1-1.4-3.5-3.1-3.5c-1.2,0-2,0.9-2,1.9c0,1.2,0.7,2,2.7,3.1
			C86.3,26.8,85.1,28.6,83.4,29.9z">
   </path>
   <path d="M15.2,35.6c2.8-1.2,4.7-2.7,4.7-5.5c0-2.5-1.6-4.3-4.4-5.1c1,0,1.9,0,2.4,0c1.3,0,5.7,0,7.8,0h4l1.3-6h-0.7l-1,1.7
			c-1.6,2.7-2.7,3.3-5.8,3.3h-1.2c-3.2,0-3.9-0.7-3.9-4.6V6.3c0-4.6,0.4-5.2,2.7-5.6l1.3-0.2V0c-0.7,0-4.8,0.1-6.1,0.1
			S11.6,0,10.8,0v0.5L12,0.7c1.8,0.3,2.1,1.2,2.1,5.6v12.5c0,4.4-0.3,5.3-2.1,5.6l-0.8,0.2c-1.7,0-4,0-5.2,0c-1.3,0-5.2-0.1-6-0.1
			v0.6l1.3,0.2c1.8,0.3,2.1,1.2,2.1,5.6v12.5c0,4.4-0.3,5.3-2.1,5.6L0,49.1v0.5c0.8,0,4-0.1,5.4-0.1s4.5,0.1,5.8,0.1
			c6,0,9.8-2.9,9.8-7.2C21,38.7,18.6,36.6,15.2,35.6z M7.7,25.6c0.8-0.2,1.6-0.2,2.6-0.2c3.2,0,5,2,5,5.4c0,3.7-1.9,5.3-5.6,5.4h-2
			C7.7,36.1,7.7,25.6,7.7,25.6z M11.7,48.8c-2.7,0-4-0.7-4-4.1V37h2c4.2,0.1,6.8,2.2,6.8,6.4C16.5,46.9,14.7,48.8,11.7,48.8z">
   </path>
   <path d="M31.7,31.7c-5.3,0-8.9,4-8.9,9c0,6,3.8,9.2,8.8,9.2c5.2,0,8.9-3.9,8.9-9C40.6,35,36.8,31.7,31.7,31.7z M32,49.2
			c-3,0-4.9-3.8-4.9-9.4c0-5.2,1.4-7.1,4-7.1c3.1,0,4.9,3.7,4.9,9.4C36,47.3,34.6,49.2,32,49.2z">
   </path>
   <path d="M67.5,44.8V32.3L67,31.9L61,33.3v0.4l0.9,0.4c1.3,0.6,1.6,1.1,1.6,3v7.6c0,3.4-0.3,4.1-1.8,4.3l-0.6,0.1L60.4,49
			c-1.5-0.2-1.8-0.7-1.8-4.3v-7.4c0-3.8-1.8-5.5-5.1-5.5c-2.2,0-4.1,1.1-5.9,2.7v-2.4l-0.5-0.3l-6.1,1.3v0.4L42,34
			c1.3,0.6,1.6,1.1,1.6,3v7.7c0,3.4-0.3,4.1-1.7,4.3l-0.7,0.1v0.5c0.8,0,2.8,0,4.5,0c1.5,0,3.5,0,4.5,0v-0.5L49.5,49
			c-1.5-0.2-1.8-0.7-1.8-4v-9.5c1-0.8,2.2-1.3,3.7-1.3c2,0,3.2,1.3,3.2,4V45c0,3.1-0.2,3.7-1.8,4l-0.6,0.1v0.6c0.8,0,2.9,0,4.5,0
			c1.4,0,3.4,0,4.4,0h0.1c0.9,0,3,0,4.6,0c1.5,0,3.5,0,4.5,0v-0.5l-0.7-0.1C67.8,48.9,67.5,48.4,67.5,44.8z">
   </path>
   <path d="M62.6,27.7c0,1.4,1.1,2.4,2.5,2.4c1.5,0,2.6-1,2.6-2.4s-1.1-2.4-2.6-2.4C63.7,25.3,62.6,26.4,62.6,27.7z">
   </path>
   <path d="M79.1,48.1c-1.4,0-2.2-0.8-2.2-2.5V33.9h4.8v-1.5h-4.8v-5.7h-1.1L73,32.2l-2.7,1v0.7h2.6v11.8c0,2.9,1.4,4.3,4.3,4.3
			c1.8,0,3.4-0.8,4.9-2.1l-0.5-0.6C80.7,47.8,80,48.1,79.1,48.1z">
   </path>
   <path d="M91.2,31.7c-5.3,0-8.9,4-8.9,9c0,6,3.8,9.2,8.8,9.2c5.2,0,8.9-3.9,8.9-9C100,35,96.2,31.7,91.2,31.7z M91.5,49.2
			c-3,0-4.9-3.8-4.9-9.4c0-5.2,1.4-7.1,4-7.1c3.1,0,4.9,3.7,4.9,9.4C95.4,47.3,94,49.2,91.5,49.2z">
   </path>
  </g>
 </g>
</svg>